<svg width="18" height="18" viewBox="0 0 18 18" fill="none" xmlns="http://www.w3.org/2000/svg">
<path fill-rule="evenodd" clip-rule="evenodd" d="M8.80547 1.94C5.01378 1.94 1.94 5.01378 1.94 8.80547C1.94 12.5972 5.01378 15.6709 8.80547 15.6709C12.5972 15.6709 15.6709 12.5972 15.6709 8.80547C15.6709 5.01378 12.5972 1.94 8.80547 1.94ZM0.690002 8.80547C0.690002 4.32342 4.32342 0.690002 8.80547 0.690002C13.2875 0.690002 16.9209 4.32342 16.9209 8.80547C16.9209 13.2875 13.2875 16.9209 8.80547 16.9209C4.32342 16.9209 0.690002 13.2875 0.690002 8.80547Z" fill="#111827"/>
<path fill-rule="evenodd" clip-rule="evenodd" d="M13.5727 13.9629C13.8165 13.7185 14.2122 13.718 14.4566 13.9617L17.3933 16.8908C17.6377 17.1346 17.6382 17.5303 17.3944 17.7747C17.1507 18.0191 16.7549 18.0196 16.5106 17.7758L13.5739 14.8468C13.3295 14.603 13.329 14.2073 13.5727 13.9629Z" fill="#111827"/>
</svg>
